<svg xmlns="http://www.w3.org/2000/svg" id="Layer_1_5" data-name="Layer 1" viewBox="0 0 35.1 35" loading="lazy" src="/content/dam/extranet/global/images/icons/tools-calc-icon.svg" alt="Pool Calculators" preserveAspectRatio="xMaxYMin meet"><path d="M11.5,1.5A3.36,3.36,0,0,1,15,5v6.4a3.69,3.69,0,0,1-3.5,3.5H5.1a3.54,3.54,0,0,1-3.5-3.5V5A3.54,3.54,0,0,1,5.1,1.5h6.4M5,8.7h6.7V7.5H5V8.7M11.5,0H5.1A5.19,5.19,0,0,0,0,5.1v6.4a5.26,5.26,0,0,0,5.1,5.1h6.4a5.26,5.26,0,0,0,5.1-5.1V5.1A5,5,0,0,0,11.5,0Z" transform="translate(0 0)" fill="#4f8309"></path><path d="M11.5,20A3.54,3.54,0,0,1,15,23.5v6.4a3.69,3.69,0,0,1-3.5,3.5H5.1a3.54,3.54,0,0,1-3.5-3.5V23.5A3.69,3.69,0,0,1,5.1,20h6.4M5,27.3H7.7V30H8.9V27.3h2.7V26.1H8.9V23.4H7.7v2.7H5v1.2m6.5-8.9H5.1A5.26,5.26,0,0,0,0,23.5v6.4A5.26,5.26,0,0,0,5.1,35h6.4a5.26,5.26,0,0,0,5.1-5.1V23.5a5.26,5.26,0,0,0-5.1-5.1Z" transform="translate(0 0)" fill="#4f8309"></path><path d="M30,1.5A3.36,3.36,0,0,1,33.5,5V29.9A3.69,3.69,0,0,1,30,33.4H23.6a3.61,3.61,0,0,1-3.5-3.5V5.1a3.54,3.54,0,0,1,3.5-3.5H30M23.5,16.7h6.7V15.5H23.5v1.2m0,2.8h6.7V18.3H23.5v1.2M30,0H23.6a5.19,5.19,0,0,0-5.1,5.1V29.9A5.26,5.26,0,0,0,23.6,35H30a5.26,5.26,0,0,0,5.1-5.1V5.1A5,5,0,0,0,30,0Z" transform="translate(0 0)" fill="#4f8309"></path></svg>