<svg version="1.1" xmlns="http://www.w3.org/2000/svg" xmlns:xlink="http://www.w3.org/1999/xlink" x="0px" y="0px" width="20px" height="20px" viewBox="0 0 20 20" enable-background="new 0 0 20 20" xml:space="preserve">
<g>
	<path fill="#006E96" d="M17.69,9.99v5.5c0,1.38-1.12,2.5-2.5,2.5h-6c-0.83,0-1.5-0.67-1.5-1.5s0.67-1.5,1.5-1.5h2
		c0.83,0,1.5,0.67,1.5,1.5c0,0.18-0.04,0.34-0.09,0.5h2.59c0.83,0,1.5-0.67,1.5-1.5v-5.5c0-3.86-3.14-7-7-7c-3.89,0-6.89,3.22-7,7
		l0,0.75c0,0.14-0.11,0.25-0.25,0.25h-0.5c-0.14,0-0.25-0.11-0.25-0.25l0-0.75c0.12-4.32,3.56-8,8-8
		C14.1,1.99,17.69,5.58,17.69,9.99z M7.69,12.97c0,0.55-0.45,1-1,1h-1c-1.1,0-2-0.89-2-2V9.99c0-1.1,0.9-2,2-2h1c0.55,0,1,0.45,1,1
		V12.97z M6.69,8.99h-1c-0.55,0-1,0.45-1,1v1.99c0,0.55,0.45,1,1,1h1V8.99z M11.69,16.49c0-0.28-0.22-0.5-0.5-0.5h-2
		c-0.28,0-0.5,0.22-0.5,0.5s0.22,0.5,0.5,0.5h2C11.47,16.99,11.69,16.76,11.69,16.49z M12.69,13.97c-0.55,0-1-0.45-1-1V8.99
		c0-0.55,0.45-1,1-1h1c1.1,0,2,0.9,2,2v1.99c0,1.11-0.9,2-2,2H12.69z M12.69,12.97h1c0.55,0,1-0.45,1-1V9.99c0-0.55-0.45-1-1-1h-1
		V12.97z"></path>
</g>
</svg>
