<svg xmlns="http://www.w3.org/2000/svg" id="Layer_1_6" data-name="Layer 1" width="50" height="50" viewBox="0 0 50 50" loading="lazy" src="/content/dam/extranet/global/images/icons/map-pin-green.svg" alt="Find a Pool Professional" preserveAspectRatio="xMaxYMin meet"><title>map-pin-green</title><path d="M25,49.55C19.81,42.32,14.58,35.4,9.72,28.24A17.76,17.76,0,0,1,10.83,7.31,18.15,18.15,0,0,1,43.18,18.56a17.84,17.84,0,0,1-2.69,9.57,12.45,12.45,0,0,1-.75,1.14ZM16.34,18.38a8.79,8.79,0,0,0,8.57,9,8.93,8.93,0,0,0,8.92-8.73,8.79,8.79,0,0,0-8.47-8.78A8.62,8.62,0,0,0,16.34,18.38Z" fill="#64a70b"></path></svg>