<svg version="1.1" id="Layer_1_0" xmlns="http://www.w3.org/2000/svg" xmlns:xlink="http://www.w3.org/1999/xlink" x="0px" y="0px" viewBox="0 0 20 20" style="enable-background:new 0 0 20 20;" xml:space="preserve">
<g>
	<path fill="#006E96" d="M4.1,11.3c-0.2-0.1-0.3-0.1-0.5-0.1H2.4c-0.8,0-1.4,0.7-1.4,1.5c0,0.3-0.2,0.5-0.5,0.5S0,12.9,0,12.7
		c0-1.4,1.1-2.5,2.4-2.5h1.2c0.5,0,0.9,0.1,1.3,0.4C4.6,10.8,4.4,11,4.1,11.3z M0.5,6.7c0-1.4,1.1-2.5,2.5-2.5s2.5,1.1,2.5,2.5
		S4.4,9.2,3,9.2S0.5,8.1,0.5,6.7z M1.5,6.7c0,0.8,0.7,1.5,1.5,1.5s1.5-0.7,1.5-1.5S3.9,5.2,3,5.2S1.5,5.9,1.5,6.7z M15.4,12.3
		c0.4,0.6,0.6,1.3,0.6,2v1.4c0,0.8-0.7,1.5-1.5,1.5h-9c-0.8,0-1.5-0.7-1.5-1.5v-1.4c0-0.7,0.2-1.4,0.6-2c0.6-1,1.7-1.5,2.9-1.5
		c1,0,1.3,0.4,2.5,0.4s1.5-0.4,2.5-0.4C13.6,10.8,14.7,11.3,15.4,12.3z M15,15.7v-1.4c0-0.5-0.2-1-0.4-1.4c-0.4-0.6-1.2-1-2-1
		c-0.8,0-1.2,0.4-2.5,0.4c-1.3,0-1.6-0.4-2.5-0.4c-0.8,0-1.6,0.4-2,1C5.2,13.2,5,13.7,5,14.3v1.4c0,0.3,0.2,0.5,0.5,0.5h9
		C14.7,16.2,15,15.9,15,15.7L15,15.7z M6.5,6.7c0-1.9,1.6-3.5,3.5-3.5s3.5,1.6,3.5,3.5s-1.6,3.5-3.5,3.5S6.5,8.6,6.5,6.7z M7.5,6.7
		c0,1.4,1.1,2.5,2.5,2.5c1.4,0,2.5-1.1,2.5-2.5S11.4,4.2,10,4.2C8.6,4.2,7.5,5.3,7.5,6.7z M14.5,6.7c0-1.4,1.1-2.5,2.5-2.5
		s2.5,1.1,2.5,2.5S18.3,9.2,17,9.2S14.5,8.1,14.5,6.7z M19.9,12.7c0,0.3-0.2,0.5-0.5,0.5c-0.3,0-0.5-0.2-0.5-0.5
		c0-0.8-0.6-1.5-1.4-1.5h-1.2c-0.2,0-0.3,0-0.5,0.1c-0.2-0.3-0.5-0.5-0.8-0.7c0.4-0.3,0.8-0.4,1.3-0.4h1.2
		C18.9,10.2,19.9,11.3,19.9,12.7z M15.5,6.7c0,0.8,0.7,1.5,1.5,1.5s1.5-0.7,1.5-1.5S17.8,5.2,17,5.2S15.5,5.9,15.5,6.7z"></path>
</g>
</svg>
