<svg xmlns="http://www.w3.org/2000/svg" version="1.1" viewBox="-5.0 -10.0 110.0 135.0">
 <g>
  <path d="m94.383 71.855c-0.078124-0.51562-0.32031-0.98828-0.67969-1.3477-0.19531-0.19531-0.42578-0.35937-0.68359-0.48047-10.289-4.8594-20.086-7.293-22.844-7.9219-0.53906-0.125-1.1016-0.0625-1.582 0.17188-4.3047 2.0781-8.3164 6.1836-9.8438 7.8516-0.15234 0.16406-0.38672 0.21875-0.58594 0.14062-9.0273-3.6875-16.848-11.93-16.941-12.031-0.10156-0.09375-8.3398-7.9141-12.031-16.941-0.082031-0.19922-0.023437-0.43359 0.14062-0.58594 1.668-1.5234 5.7734-5.5391 7.8516-9.8438 0.23438-0.48438 0.29688-1.0469 0.17188-1.582-0.62891-2.7578-3.0625-12.555-7.9219-22.844-0.12109-0.25781-0.28516-0.48828-0.48047-0.68359-0.35938-0.35937-0.82812-0.60156-1.3477-0.67969-1.6641-0.25781-6.0312-0.76953-10.648-0.007813-0.49219 0.082032-0.96875 0.28125-1.3711 0.57422-2.2812 1.6445-9.7812 7.9219-10.703 19.48-1.0664 13.387 6.9531 28.734 23.832 45.617 16.883 16.879 32.23 24.895 45.617 23.832 11.562-0.91797 17.836-8.4219 19.484-10.699 0.29297-0.40625 0.49219-0.88281 0.57422-1.3711 0.76172-4.6172 0.24609-8.9844-0.007813-10.648zm-1.4492 10.406c-0.042969 0.26562-0.15234 0.52344-0.3125 0.75-1.5547 2.1484-7.4766 9.2227-18.406 10.094-12.938 1.0312-27.895-6.8438-44.457-23.402-16.559-16.566-24.434-31.523-23.402-44.461 0.87109-10.93 7.9453-16.852 10.09-18.406 0.22266-0.16016 0.48047-0.26953 0.75-0.3125 4.4062-0.72656 8.5898-0.23438 10.184 0.011718 0.3125 0.046875 0.57812 0.25 0.71484 0.53516 4.7969 10.156 7.1992 19.824 7.8203 22.547 0.050782 0.21484 0.027344 0.42578-0.0625 0.61328-1.9648 4.0742-5.9141 7.9297-7.5195 9.3945-0.62109 0.56641-0.82422 1.4648-0.51172 2.2305 3.7422 9.1602 11.715 16.82 12.352 17.426 0.60547 0.63672 8.2695 8.6094 17.426 12.352 0.76953 0.31641 1.6641 0.10938 2.2305-0.51172 1.4688-1.6055 5.3203-5.5547 9.3945-7.5195 0.18359-0.089843 0.39453-0.10937 0.61328-0.0625 2.7227 0.62109 12.387 3.0234 22.547 7.8203 0.28906 0.13672 0.48828 0.40234 0.53516 0.71484 0.25 1.6016 0.74219 5.7812 0.015625 10.188z"/>
  <path d="m94.383 71.855c-0.078124-0.51562-0.32031-0.98828-0.67969-1.3477-0.19531-0.19531-0.42578-0.35937-0.68359-0.48047-10.289-4.8594-20.086-7.293-22.844-7.9219-0.53906-0.125-1.1016-0.0625-1.582 0.17188-4.3047 2.0781-8.3164 6.1836-9.8438 7.8516-0.15234 0.16406-0.38672 0.21875-0.58594 0.14062-9.0273-3.6875-16.848-11.93-16.941-12.031-0.10156-0.09375-8.3398-7.9141-12.031-16.941-0.082031-0.19922-0.023437-0.43359 0.14062-0.58594 1.668-1.5234 5.7734-5.5391 7.8516-9.8438 0.23438-0.48438 0.29688-1.0469 0.17188-1.582-0.62891-2.7578-3.0625-12.555-7.9219-22.844-0.12109-0.25781-0.28516-0.48828-0.48047-0.68359-0.35938-0.35937-0.82812-0.60156-1.3477-0.67969-1.6641-0.25781-6.0312-0.76953-10.648-0.007813-0.49219 0.082032-0.96875 0.28125-1.3711 0.57422-2.2812 1.6445-9.7812 7.9219-10.703 19.48-1.0664 13.387 6.9531 28.734 23.832 45.617 16.883 16.879 32.23 24.895 45.617 23.832 11.562-0.91797 17.836-8.4219 19.484-10.699 0.29297-0.40625 0.49219-0.88281 0.57422-1.3711 0.76172-4.6172 0.24609-8.9844-0.007813-10.648zm-1.4492 10.406c-0.042969 0.26562-0.15234 0.52344-0.3125 0.75-1.5547 2.1484-7.4766 9.2227-18.406 10.094-12.938 1.0312-27.895-6.8438-44.457-23.402-16.559-16.566-24.434-31.523-23.402-44.461 0.87109-10.93 7.9453-16.852 10.09-18.406 0.22266-0.16016 0.48047-0.26953 0.75-0.3125 4.4062-0.72656 8.5898-0.23438 10.184 0.011718 0.3125 0.046875 0.57812 0.25 0.71484 0.53516 4.7969 10.156 7.1992 19.824 7.8203 22.547 0.050782 0.21484 0.027344 0.42578-0.0625 0.61328-1.9648 4.0742-5.9141 7.9297-7.5195 9.3945-0.62109 0.56641-0.82422 1.4648-0.51172 2.2305 3.7422 9.1602 11.715 16.82 12.352 17.426 0.60547 0.63672 8.2695 8.6094 17.426 12.352 0.76953 0.31641 1.6641 0.10938 2.2305-0.51172 1.4688-1.6055 5.3203-5.5547 9.3945-7.5195 0.18359-0.089843 0.39453-0.10937 0.61328-0.0625 2.7227 0.62109 12.387 3.0234 22.547 7.8203 0.28906 0.13672 0.48828 0.40234 0.53516 0.71484 0.25 1.6016 0.74219 5.7812 0.015625 10.188z"/>
 </g>
</svg>