<svg xmlns="http://www.w3.org/2000/svg" id="Layer_1_2" data-name="Layer 1" viewBox="0 0 41.65 41.65" loading="lazy" src="/content/dam/extranet/global/images/icons/product-rebates-icon.svg" alt="Rebate Center" preserveAspectRatio="xMaxYMin meet"><path d="M19.2,27.9c.1,0,.2-.1.3-.1H20l.6-.3c.5-.2.9-.4,1.1-.5l.3-.1.2.1h.2l.4-.1a3.09,3.09,0,0,1,.8-.2V25.2l.2-.3h0a16.69,16.69,0,0,1-1.4-8.2,15.39,15.39,0,0,1,3-8.2l.2-.3L33,13.3l-.2.3A8.3,8.3,0,0,0,31.5,17a6.45,6.45,0,0,0,.1,2.5,1.93,1.93,0,0,1-.1,1.5c-.2.3-.7.4-1.3.5l-.1-.4h0l.1.4c-1.3.3-3,.6-3.1,3.3v.1l.2.3v1h2.3v.6a1.29,1.29,0,0,0,1-.4l.1-.1.6.2c.2,0,.3.1.4.1l1,.4-1,.3a2.07,2.07,0,0,0-.6.2H31c-.2.1-.5.1-.7.2h-.2l-1,.6c-.5.3-.5.4-.5.4l.5.6.9.6h-.2c.1.1.2.1.3.2s.2.1.2.2l.2.2a2.27,2.27,0,0,1,.6,1.6,2,2,0,0,1-.7,1.6h0a2.36,2.36,0,0,1-1.6.7,2.39,2.39,0,0,1-1.4-.5c-.1-.1-.1-.1-.2-.1l-.1-.1H21.9l-.1.1a.1.1,0,0,0-.1.1l-.2.1a3.17,3.17,0,0,1-1.6.4,3.33,3.33,0,0,1-3.3-3.3A3.52,3.52,0,0,1,19.2,27.9Z" transform="translate(-0.03 -0.03)" fill="#09244f"></path><polygon points="3.37 41.65 0 41.65 0 38.27 1.95 38.27 1.95 39.7 3.37 39.7 3.37 41.65" fill="#09244f"></polygon><path d="M2,35.3H0v-5H2Zm0-8H0v-5H2Zm0-8H0v-5H2Zm0-8H0v-5H2Z" transform="translate(-0.03 -0.03)" fill="#09244f"></path><polygon points="1.95 3.37 0 3.37 0 0 3.37 0 3.37 1.95 1.95 1.95 1.95 3.37" fill="#09244f"></polygon><path d="M35.28,2h-5V0h5Zm-8,0h-5V0h5Zm-8,0h-5V0h5Zm-8,0h-5V0h5Z" transform="translate(-0.03 -0.03)" fill="#09244f"></path><polygon points="41.65 3.37 39.7 3.37 39.7 1.95 38.27 1.95 38.27 0 41.65 0 41.65 3.37" fill="#09244f"></polygon><path d="M41.67,35.28H39.73v-5h1.94Zm0-8H39.73v-5h1.94Zm0-8H39.73v-5h1.94Zm0-8H39.73v-5h1.94Z" transform="translate(-0.03 -0.03)" fill="#09244f"></path><polygon points="41.65 41.65 38.27 41.65 38.27 39.7 39.7 39.7 39.7 38.27 41.65 38.27 41.65 41.65" fill="#09244f"></polygon><path d="M35.3,41.67h-5V39.73h5Zm-8,0h-5V39.73h5Zm-8,0h-5V39.73h5Zm-8,0h-5V39.73h5Z" transform="translate(-0.03 -0.03)" fill="#09244f"></path><path d="M11.9,17.9v1.6H10.4V17.9A4.25,4.25,0,0,1,7,16.5l1.3-1.2a3.64,3.64,0,0,0,2.3.9V13.6l-.5-.1a2.89,2.89,0,0,1-2-.9,2.58,2.58,0,0,1-.7-2,3,3,0,0,1,3-3.1V6.2h1.5V7.5a3.83,3.83,0,0,1,2.8,1.2L13.4,10a2.19,2.19,0,0,0-1.7-.7v2.5l.5.1a3.67,3.67,0,0,1,2,.8,3.11,3.11,0,0,1,.8,2.2C15,16.6,13.7,17.7,11.9,17.9ZM10.6,9.3a1.32,1.32,0,0,0-1.3,1.3.91.91,0,0,0,.3.7,1.88,1.88,0,0,0,1,.4ZM12.7,14a1.88,1.88,0,0,0-1-.4v2.5c.9-.1,1.3-.5,1.3-1.2A1.22,1.22,0,0,0,12.7,14Z" transform="translate(-0.03 -0.03)" fill="#09244f"></path></svg>