<svg xmlns="http://www.w3.org/2000/svg" id="Layer_1_4" data-name="Layer 1" viewBox="0 0 37.7 48.5" loading="lazy" src="/content/dam/extranet/global/images/icons/product-registration-icon.svg" alt="Product Registration" preserveAspectRatio="xMaxYMin meet"><path d="M35.5,7.4v-1A23.37,23.37,0,0,1,19.6.3a1,1,0,0,0-1.4,0A23.18,23.18,0,0,1,2.3,6.4H1a.91.91,0,0,0-.7.3.91.91,0,0,0-.3.7V29.7a12,12,0,0,0,2.6,6.9,33.9,33.9,0,0,0,8.8,7.7,75.12,75.12,0,0,0,6.8,3.9l.4-.9-.9.4.1.2a1.15,1.15,0,0,0,.9.6.76.76,0,0,0,.4-.1,2.19,2.19,0,0,0,.5-.3l-.7-.7v.3l-.4.6a.58.58,0,0,0,.4.1v-.7l-.4.6.3-.5-.4.4.1.1.3-.5-.4.4a1.4,1.4,0,0,0,.9.3A.94.94,0,0,0,20,48l.1-.2-.9-.4.4.9a64.59,64.59,0,0,0,9.9-6.1,29.22,29.22,0,0,0,5.6-5.5,12,12,0,0,0,2.6-6.9V7.5a1,1,0,0,0-1-1H35.4V8.4h1.3v-1h-1V29.7a9.74,9.74,0,0,1-2.2,5.7c-2,2.8-5.3,5.3-8.2,7.3s-5.6,3.3-6.6,3.8c-.2.1-.3.3-.4.4l-.1.2.9.4.7-.7-.2-.2a1,1,0,0,0-.7-.2.91.91,0,0,0-.7.3l.5.5-.2-.6-.3.2.5.5-.2-.6.3.8v-.8h-.3l.3.8v.2l.9-.4-.1-.2c-.1-.2-.3-.3-.4-.4a55.84,55.84,0,0,1-9.6-5.9,25.22,25.22,0,0,1-5.2-5.1C2.8,33.5,2,31.6,2,29.7V7.4H1v1H2.3A25,25,0,0,0,19.6,1.7L18.9,1l-.7.7A25.13,25.13,0,0,0,35.5,8.4Z" transform="translate(0 0)" fill="#4f8309"></path><polygon points="16.9 33.6 8 26.6 11.1 22.7 16.1 26.7 25.9 14.7 29.7 17.8 16.9 33.6" fill="#4f8309"></polygon></svg>