<svg version="1.1" xmlns="http://www.w3.org/2000/svg" xmlns:xlink="http://www.w3.org/1999/xlink" x="0px" y="0px" viewBox="0 0 20 20" enable-background="new 0 0 20 20" xml:space="preserve">
<g>
	<path fill="#006E96" d="M20,14.0449v0.5c0,0.1377-0.1123,0.25-0.25,0.25h-1.7998C17.9814,14.957,18,15.123,18,15.2949
		c0,1.3809-1.1191,2.5-2.5,2.5s-2.5-1.1191-2.5-2.5c0-0.1719,0.0156-0.3379,0.0498-0.5H6.9502C6.9814,14.957,7,15.123,7,15.2949
		c0,1.3809-1.1187,2.5-2.5,2.5s-2.5-1.1191-2.5-2.5c0-0.1719,0.0156-0.3379,0.0498-0.5H1.5439C0.6938,14.7949,0,14.1416,0,13.3389
		V4.251c0-0.8027,0.6938-1.4561,1.5439-1.4561h9.9121C12.3066,2.7949,13,3.4482,13,4.251v1.5439h1.3779
		c0.5283,0,1.0439,0.2124,1.4131,0.5874l2.6211,2.6221C18.7871,9.376,19,9.8916,19,10.417v3.3779h0.75
		C19.8877,13.7949,20,13.9072,20,14.0449z M12,13.7949V4.251c0-0.2529-0.2441-0.4561-0.5439-0.4561H1.5439
		C1.2437,3.7949,1,3.998,1,4.251v9.0879c0,0.2529,0.2437,0.4561,0.5439,0.4561h0.9688c0.4561-0.6035,1.1748-1,1.9873-1
		s1.5312,0.3965,1.9873,1H12z M6,15.2949c0-0.8281-0.6719-1.5-1.5-1.5s-1.5,0.6719-1.5,1.5s0.6719,1.5,1.5,1.5S6,16.123,6,15.2949z
		 M14.3779,6.7979H13v3h4.7627c-0.0225-0.0278-0.0312-0.0625-0.0566-0.0874L15.084,7.0889
		c-0.1836-0.1875-0.4434-0.2939-0.7061-0.2939V6.7979z M17.4873,13.7949H18v-3h-5v3h0.5127c0.4561-0.6035,1.1719-1,1.9873-1
		S17.0312,13.1914,17.4873,13.7949z M17,15.2949c0-0.8281-0.6719-1.5-1.5-1.5s-1.5,0.6719-1.5,1.5s0.6719,1.5,1.5,1.5
		S17,16.123,17,15.2949z"></path>
</g>
</svg>