<svg xmlns="http://www.w3.org/2000/svg" id="Layer_1_3" data-name="Layer 1" width="50" height="50" viewBox="0 0 50 50" loading="lazy" alt="Product Warranties" preserveAspectRatio="xMaxYMin meet"><title>product-warranties</title><path d="M34.61,15.39l.51.73a39.67,39.67,0,0,0-6.95,7.24,49.52,49.52,0,0,0-5.83,9.13l-1.08.73a17.39,17.39,0,0,0-1.82,1.38c-.13-.45-.41-1.2-.84-2.24l-.4-.95a14.94,14.94,0,0,0-1.63-3,3.68,3.68,0,0,0-1.69-1.3,4.31,4.31,0,0,1,2.89-1.66c.75,0,1.58,1,2.5,3.05l.45,1a42,42,0,0,1,6.33-8.08A35.48,35.48,0,0,1,34.61,15.39Z" fill="#4f8309"></path>
<path d="M32.58,48.32,25,43.5l-7.58,4.82L14.13,40l-9-.56L7.4,30.72.49,25,7.4,19.28,5.17,10.59l9-.56,3.29-8.35L25,6.5l7.58-4.82L35.87,10l9,.56L42.6,19.28,49.51,25,42.6,30.72l2.23,8.69-9,.56ZM25,40.24l6.24,4L34,37.34l7.39-.46L39.5,29.71,45.21,25,39.5,20.29l1.85-7.17L34,12.66,31.24,5.78,25,9.75l-6.24-4L16,12.66l-7.39.46,1.85,7.17L4.79,25l5.71,4.71L8.65,36.88l7.39.46,2.72,6.88Z" fill="#4f8309"></path>
</svg>